<svg xmlns="http://www.w3.org/2000/svg" width="200.846" height="156.015" viewBox="0 0 200.846 156.015">
  <path id="Path_74" data-name="Path 74" d="M760.3-1908.3a117.345,117.345,0,0,0-8.3,9.8c-3.5,4.4-7.3,8.8-8.4,9.8-2.9,2.4-38.2,23.7-39.4,23.7-.5,0-2.7-1.3-4.8-2.8-6.5-4.7-12.8-6.6-22-6.6-10.2,0-14.2,1.6-24.8,10.2a105.443,105.443,0,0,1-11.8,8.3c-5.7,2.9-15.8,5.9-20,5.9-7.8,0-18.6,4.8-25.6,11.4-4.6,4.3-6.5,7.3-9.4,14.6-2.6,6.6-2.5,21.7.3,29.5,5.5,15.8,17.4,30.1,30.4,36.5,6.3,3.1,8,3.5,16.8,3.8,9.5.4,9.9.3,17.2-3.3,9.5-4.6,13.7-8.8,20.6-20.5,6.5-11.1,11.3-15.6,22.5-20.9,17.9-8.6,25.2-20.9,23.7-39.6l-.5-7,5.7-4c3.1-2.2,10.1-7.2,15.4-11,5.3-3.9,10.8-7.6,12-8.3,3.3-1.9,22.8-8.2,25.4-8.2,8.2,0,12.2-12.1,7.4-22C778.4-1907.7,765.6-1913,760.3-1908.3Zm-116,87.4c5.8,3,9.1,9,9.1,17.1.1,5.8-.3,7.1-2.9,10.9-9,12.7-27,11.7-34-2.1-3-5.9-3.2-11-.5-16.8,2.1-4.7,3.1-5.8,7.5-8.6C629.6-1824.3,637.1-1824.5,644.3-1820.9Zm-37.7,21.7c1.4.9,9.8,13.1,10.7,15.6,1,2.4-.9,5.7-2.9,4.9-1.5-.6-12.4-16.4-12.4-18,0-1,2.1-3.3,3-3.3A4.649,4.649,0,0,1,606.6-1799.2Z" transform="translate(-583.922 1910.054)"/>
</svg>
