<svg xmlns="http://www.w3.org/2000/svg" width="214.955" height="128.283" viewBox="0 0 214.955 128.283">
  <path id="Union_3" data-name="Union 3" d="M-1494.1-2074.21c-2.1-2.1-2.3-2.1-8.9-.5-8.9,2.1-13.7,2-24-.4l-8.4-2.1-1.6,2.1c-1.4,1.8-2.5,2.1-7.4,1.8-7.3-.4-9-2.2-6.3-6.9,2.1-3.7,2.2-6.5.3-7.2-3.8-1.5-14.3-18.6-16.2-26.2a12.6,12.6,0,0,0-2-4.5c-2.5-2.9-2.8-9.3-.6-14.6a52.349,52.349,0,0,0,2.6-8.1c1-5.7,6.4-15.9,11.3-21.4a93.574,93.574,0,0,0,7.2-9,17.444,17.444,0,0,1,13-6.9,18.686,18.686,0,0,0,6.2-1.5q3.451-1.351,14.1-1.5c9.1,0,11.7.4,17.5,2.6a95.265,95.265,0,0,0,10.3,3.3c5.9,1.3,10.1,4,11.5,7.5a86.291,86.291,0,0,0,5.3,9.2c5,7.6,7.7,13.8,8.6,19.7a42.4,42.4,0,0,0,2.2,8.2c1.9,4.6,1.8,7.3-.6,11.8a16.456,16.456,0,0,0-2,5.1c0,.8-1.5,4.9-3.4,9a46.3,46.3,0,0,1-10.1,14.3l-6.7,6.8,1.5,4.1c1.3,3.6,1.3,4.5.1,6.2a6.5,6.5,0,0,1-5.533,2.682A11.572,11.572,0,0,1-1494.1-2074.21Zm-38.3-85.5c-4.9,2.9-11.9,10.3-14.2,15.2-2.1,4.4-4.4,13.3-4.4,17.1,0,4,2.3,12.8,4.5,17,2.9,5.7,10.2,12.9,16.7,16.4,6,3.2,6.8,3.4,16.8,3.4,10.3,0,10.6-.1,17.2-3.8,7.4-4.1,13.8-10.7,17-17.6,1.8-3.8,2.2-6.5,2.2-15.6.1-10-.2-11.4-2.6-16.1a53.13,53.13,0,0,0-5.5-8.4c-4-4.8-12.7-10-19.2-11.6a42.787,42.787,0,0,0-9.727-1.164A36.516,36.516,0,0,0-1532.4-2159.71Zm97.9,75.3c-3.3-4.4-4.9-4.7-6.9-1-2.7,5.3-5.4,7.3-9.6,7.3-2.1,0-4.1-.4-4.5-1-.3-.5,2.2-4.9,5.5-9.7l6-8.8v-34.6c0-25.5.3-34.8,1.2-35.7.7-.7,3.1-1.2,5.5-1.2h4.3v33.8c0,18.5.4,35.2.9,37,.6,1.8,3.3,6.4,6,10.1,6.3,8.4,6.5,10.1,1.3,10.1C-1429.1-2078.111-1430.5-2079.011-1434.5-2084.411Zm-151.6.8c-1.8-2.5-4-4.5-4.9-4.5s-3.1,2-4.9,4.5c-3.1,4.3-3.5,4.5-8.2,4.5-2.8,0-4.9-.5-4.9-1.1s1.9-3.6,4.3-6.7c8.4-11.1,7.7-7.1,7.7-46.5,0-23.9.3-35.6,1.1-36.4,1.3-1.3,9,.2,10.1,2,.4.7.8,16.8.8,35.8v34.7l4.3,5.8c6.1,8.5,7.7,11.1,7,11.8a14.283,14.283,0,0,1-4.9.6C-1582.5-2079.111-1583.1-2079.51-1586.1-2083.611Zm120.2-88.5c-5.6-2.9.1-9,8.4-9a91.807,91.807,0,0,0,13.2-1.5,87.757,87.757,0,0,1,12.3-1.5,40.1,40.1,0,0,0,9-1.4c8.6-2.8,16-1.5,16,2.8,0,3.2-2.8,4.4-14,6-26.977,3.943-36.92,5.3-41.314,5.3A6.627,6.627,0,0,1-1465.9-2172.11Zm-115.6-1.5a69.234,69.234,0,0,0-10-1.5c-2.6,0-20.7-2.4-27.2-3.6-2.4-.5-4-4.2-2.9-6.9.7-2,13.3-2,20,0a47.12,47.12,0,0,0,11,1.5,70.105,70.105,0,0,1,12.1,1.5,52.837,52.837,0,0,0,9.6,1.5c4.8,0,8.6,3.8,7,6.9-1,1.8-2.1,2.1-6.9,2.1A77.689,77.689,0,0,1-1581.5-2173.611Zm113.8-10.7c-2-1.6-1.5-5.6.8-6.8,1.1-.6,5.7-1.5,10.2-2s10-1.6,12.1-2.5c2.8-1.2,5.5-1.5,9.5-1.1a46.15,46.15,0,0,0,12.1-.8c9-1.9,10.5-1.9,13,.2,1.6,1.3,2.1,2.4,1.6,4-.8,2.3-1.8,2.7-8.8,3.7-2.6.3-5,1-5.3,1.6-.4.5-4.1.9-8.3.9a57.987,57.987,0,0,0-11.7,1.1c-4.542,1.278-14.626,2.2-20.6,2.2C-1465.539-2183.808-1467.294-2183.962-1467.7-2184.311Zm-112-1.3a62.582,62.582,0,0,0-12.9-1.5c-4.1,0-8.7-.6-10.7-1.5a28.868,28.868,0,0,0-8.8-1.5c-7.4,0-11.3-4.1-7.6-7.9.9-1,3.1-1.1,9.2-.6,4.4.5,11.4.9,15.5,1a76.479,76.479,0,0,1,15.4,2.3,62.363,62.363,0,0,0,12.2,2.2c3.5,0,4.7.5,5.9,2.4,1.3,1.9,1.4,2.9.5,4.5-.9,1.8-2,2.1-7,2.1A58.584,58.584,0,0,1-1579.7-2185.61Z" transform="translate(1621.954 2198.912)"/>
</svg>
