<svg xmlns="http://www.w3.org/2000/svg" width="119.859" height="132.779" viewBox="0 0 119.859 132.779">
  <path id="Union_2" data-name="Union 2" d="M56.9,132.692c-43.7-.3-45.6-.4-49-2.3-6.5-3.9-7.5-7-7.8-24.8-.2-8.7-.1-16.9.2-18.3l.6-2.4,56.8-.2c31.2-.2,57.7-.1,59,.1,3.2.5,3.6,3.2,2.8,20.8-.8,16.4-1.7,20-5.7,23.2-4.129,3.22-7.915,3.986-35.8,3.986C72.123,132.779,65.164,132.745,56.9,132.692Zm41.8-36.8a7.385,7.385,0,0,0-2.3,3.9,8.736,8.736,0,0,1-2.1,4.2c-1,.8-1.4,3.6-1.4,10.5,0,8.5.2,9.4,2.2,10.8,1.2.9,4.3,1.6,6.8,1.6s5.6-.7,6.8-1.6c2.1-1.4,2.2-2.2,2.2-14.4s-.1-13-2.2-14.4a10.1,10.1,0,0,0-5.66-1.519A9.473,9.473,0,0,0,98.7,95.892Zm-66.8,4.5a5.354,5.354,0,0,1-1.5,3.5c-1.1.9-1.5,3.5-1.5,10.6,0,10.7.5,11.4,8.5,11.4,8.1,0,8.5-.6,8.5-12,0-5.5-.4-10.2-1-10.5-.5-.3-1-2.1-1-4,0-2.1-.6-3.5-1.6-3.9a22.362,22.362,0,0,0-5.4-.6C32.9,94.892,31.9,95.993,31.9,100.392Zm41.2-4.3c-1.7,1.7-1.7,26.9,0,28.6,1.8,1.8,13.3,1.5,15.2-.4,2.3-2.2,2.3-18,0-20.5a13.381,13.381,0,0,1-2.3-5.1c-.7-3.2-.8-3.3-6.1-3.6-.583-.034-1.142-.051-1.672-.051C75.666,95.041,73.767,95.43,73.1,96.093Zm-19.2,4a4.667,4.667,0,0,1-1.5,3.6c-1.3.7-1.5,2.7-1.3,11.3l.3,10.4,6.2.3c10.2.5,10.3.4,10.3-15.1,0-9-.4-13.7-1.2-14.5-.7-.7-3.3-1.2-5.8-1.2C55.6,94.892,53.9,96.193,53.9,100.093ZM8,96.792c-1.5,2.8-1.4,25.4.1,26.9.7.7,4.2,1.2,8.5,1.2,8.4,0,7.6,1.3,7.5-12.8,0-5.1-.4-7.8-1.5-9a10.573,10.573,0,0,1-1.9-4.7c-.3-2.9-.5-3-6-3.3-1.047-.065-1.914-.1-2.638-.1C9.473,94.99,8.707,95.463,8,96.792ZM.8,74.893c-1.5-2.2-.4-35.2,1.4-42,1.6-6.2,6-16.1,9.1-20.3,3-4.1,10.8-9.6,15.8-11.2,9.1-2.8,21.7-1.3,30,3.8,2,1.2,8.2,5.7,13.7,9.9,7.1,5.4,11.2,7.9,13.8,8.3,11,1.6,15.9,2.9,19,4.9,4.1,2.8,9.4,9.8,11.5,15.1,4,10.1,6.1,27.8,3.8,31.5-.8,1.3-8.5,1.5-59,1.5S1.7,76.192.8,74.893Z" transform="translate(0 0)"/>
</svg>
